<svg width="292" height="102" viewBox="0 0 292 102" fill="none" xmlns="http://www.w3.org/2000/svg">
<path d="M61.7188 46.4219C61.7188 48.7396 61.4323 50.8099 60.8594 52.6328C60.2865 54.4557 59.5052 56.0703 58.5156 57.4766C57.5521 58.8568 56.4323 60.0417 55.1562 61.0312C53.8802 62.0208 52.5391 62.8281 51.1328 63.4531C49.7526 64.0781 48.3464 64.5339 46.9141 64.8203C45.5078 65.1068 44.1797 65.25 42.9297 65.25H19.9609V55.0938H42.9297C44.2318 54.9896 45.4036 54.7292 46.4453 54.3125C47.513 53.8698 48.4245 53.2839 49.1797 52.5547C49.9349 51.8255 50.5208 50.9531 50.9375 49.9375C51.3542 48.8958 51.5625 47.724 51.5625 46.4219V41.8125C51.4323 40.5365 51.1589 39.3646 50.7422 38.2969C50.3255 37.2292 49.7526 36.3177 49.0234 35.5625C48.3203 34.8073 47.4609 34.2214 46.4453 33.8047C45.4297 33.362 44.2578 33.1406 42.9297 33.1406H20.0391C18.6849 33.1406 17.6562 33.4922 16.9531 34.1953C16.25 34.8984 15.8984 35.9141 15.8984 37.2422V79H5.74219V37.2422C5.74219 34.638 6.21094 32.4245 7.14844 30.6016C8.11198 28.7786 9.29688 27.3073 10.7031 26.1875C12.1354 25.0677 13.6849 24.2604 15.3516 23.7656C17.0182 23.2448 18.5547 22.9844 19.9609 22.9844H42.9297C45.2214 22.9844 47.2786 23.2839 49.1016 23.8828C50.9245 24.4557 52.526 25.237 53.9062 26.2266C55.3125 27.1901 56.4974 28.3099 57.4609 29.5859C58.4505 30.862 59.2578 32.2031 59.8828 33.6094C60.5339 34.9896 61.0026 36.3958 61.2891 37.8281C61.5755 39.2344 61.7188 40.5625 61.7188 41.8125V46.4219ZM161.602 79H151.445V50.9922C151.445 49.6641 151.094 48.6615 150.391 47.9844C149.688 47.2812 148.646 46.9297 147.266 46.9297H134.062V79H123.906V41.8125C123.906 41.1094 124.036 40.4583 124.297 39.8594C124.557 39.2344 124.922 38.7005 125.391 38.2578C125.859 37.7891 126.406 37.4245 127.031 37.1641C127.656 36.9036 128.32 36.7734 129.023 36.7734H147.344C148.75 36.7734 150.26 37.0208 151.875 37.5156C153.49 38.0104 155.026 38.8047 156.484 39.8984V36.7734H170.234C171.198 36.7734 172.214 36.8906 173.281 37.125C174.349 37.3333 175.404 37.6719 176.445 38.1406C177.513 38.6094 178.529 39.2214 179.492 39.9766C180.456 40.7057 181.302 41.6042 182.031 42.6719C182.76 43.7135 183.346 44.9245 183.789 46.3047C184.232 47.6849 184.453 49.2474 184.453 50.9922V79H174.297V50.9922C174.297 49.6641 173.958 48.6615 173.281 47.9844C172.63 47.2812 171.615 46.9297 170.234 46.9297H161.094C161.432 48.1797 161.602 49.5339 161.602 50.9922V79ZM239.766 64.7422C239.766 66.487 239.544 68.0625 239.102 69.4688C238.659 70.849 238.073 72.0729 237.344 73.1406C236.615 74.1823 235.768 75.0807 234.805 75.8359C233.841 76.5651 232.826 77.1641 231.758 77.6328C230.716 78.1016 229.648 78.4531 228.555 78.6875C227.487 78.8958 226.471 79 225.508 79H207.188C205.781 79 204.245 78.7526 202.578 78.2578C200.911 77.763 199.362 76.9557 197.93 75.8359C196.523 74.6901 195.339 73.2188 194.375 71.4219C193.438 69.599 192.969 67.3724 192.969 64.7422V50.9922C192.969 48.388 193.438 46.1875 194.375 44.3906C195.339 42.5677 196.523 41.0964 197.93 39.9766C199.362 38.8307 200.911 38.0104 202.578 37.5156C204.245 37.0208 205.781 36.7734 207.188 36.7734H225.508C228.112 36.7734 230.326 37.2422 232.148 38.1797C233.971 39.1172 235.443 40.3021 236.562 41.7344C237.682 43.1406 238.49 44.6771 238.984 46.3438C239.505 48.0104 239.766 49.5599 239.766 50.9922V64.7422ZM229.609 51.0703C229.609 49.6641 229.258 48.6224 228.555 47.9453C227.852 47.2682 226.836 46.9297 225.508 46.9297H207.266C205.911 46.9297 204.883 47.2812 204.18 47.9844C203.477 48.6615 203.125 49.6641 203.125 50.9922V64.7422C203.125 66.0703 203.477 67.0859 204.18 67.7891C204.883 68.4922 205.911 68.8438 207.266 68.8438H225.508C226.888 68.8438 227.917 68.4922 228.594 67.7891C229.271 67.0859 229.609 66.0703 229.609 64.7422V51.0703ZM289.258 64.7422C289.258 66.487 289.036 68.0625 288.594 69.4688C288.151 70.849 287.565 72.0729 286.836 73.1406C286.107 74.1823 285.26 75.0807 284.297 75.8359C283.333 76.5651 282.318 77.1641 281.25 77.6328C280.208 78.1016 279.141 78.4531 278.047 78.6875C276.979 78.8958 275.964 79 275 79H247.5V68.8438H274.922C276.302 68.8438 277.344 68.4922 278.047 67.7891C278.75 67.0859 279.102 66.0703 279.102 64.7422C278.971 62.0339 277.604 60.6797 275 60.6797H259.258C257.018 60.6797 255.117 60.2891 253.555 59.5078C251.992 58.7266 250.716 57.75 249.727 56.5781C248.763 55.4062 248.06 54.1432 247.617 52.7891C247.201 51.4349 246.992 50.1719 246.992 49C246.992 46.7344 247.396 44.8333 248.203 43.2969C249.01 41.7344 250.026 40.4714 251.25 39.5078C252.474 38.5443 253.802 37.8542 255.234 37.4375C256.667 36.9948 258.008 36.7734 259.258 36.7734H284.219V46.9297H259.336C258.815 46.9297 258.398 46.9948 258.086 47.125C257.799 47.2292 257.578 47.3854 257.422 47.5938C257.292 47.776 257.214 47.9844 257.188 48.2188C257.161 48.4271 257.148 48.6354 257.148 48.8438C257.174 49.2604 257.253 49.5859 257.383 49.8203C257.513 50.0547 257.669 50.224 257.852 50.3281C258.06 50.4323 258.281 50.4974 258.516 50.5234C258.776 50.5234 259.023 50.5234 259.258 50.5234H275C277.604 50.5234 279.818 50.9922 281.641 51.9297C283.464 52.8672 284.935 54.0521 286.055 55.4844C287.174 56.8906 287.982 58.4271 288.477 60.0938C288.997 61.7604 289.258 63.3099 289.258 64.7422Z" fill="#222233"/>
<path d="M115.234 64.7422C115.234 66.487 115.013 68.0625 114.57 69.4688C114.128 70.849 113.542 72.0729 112.812 73.1406C112.083 74.1823 111.237 75.0807 110.273 75.8359C109.31 76.5651 108.294 77.1641 107.227 77.6328C106.185 78.1016 105.117 78.4531 104.023 78.6875C102.956 78.8958 101.94 79 100.977 79H82.6562C81.25 79 79.7135 78.7526 78.0469 78.2578C76.3802 77.763 74.8307 76.9557 73.3984 75.8359C71.9922 74.6901 70.8073 73.2188 69.8438 71.4219C68.9062 69.599 68.4375 67.3724 68.4375 64.7422V50.9922C68.4375 48.388 68.9062 46.1875 69.8438 44.3906C70.8073 42.5677 71.9922 41.0964 73.3984 39.9766C74.8307 38.8307 76.3802 38.0104 78.0469 37.5156C79.7135 37.0208 81.25 36.7734 82.6562 36.7734H100.977C103.581 36.7734 105.794 37.2422 107.617 38.1797C109.44 39.1172 110.911 40.3021 112.031 41.7344C113.151 43.1406 113.958 44.6771 114.453 46.3438C114.974 48.0104 115.234 49.5599 115.234 50.9922V64.7422ZM105.078 51.0703C105.078 49.6641 104.727 48.6224 104.023 47.9453C103.32 47.2682 102.305 46.9297 100.977 46.9297H82.7344C81.3802 46.9297 80.3516 47.2812 79.6484 47.9844C78.9453 48.6615 78.5938 49.6641 78.5938 50.9922V64.7422C78.5938 66.0703 78.9453 67.0859 79.6484 67.7891C80.3516 68.4922 81.3802 68.8438 82.7344 68.8438H100.977C102.357 68.8438 103.385 68.4922 104.062 67.7891C104.74 67.0859 105.078 66.0703 105.078 64.7422V51.0703Z" fill="#44EE69"/>
<line x1="96.5" y1="59.5" x2="100.5" y2="59.5" stroke="#222233" stroke-width="3" stroke-linecap="round"/>
<line x1="92.5" y1="57.5" x2="92.5" y2="49.5" stroke="#222233" stroke-width="3" stroke-linecap="round"/>
<path d="M101 28.5605C109.709 26.7715 112.566 28.6858 116.263 34.1159" stroke="#222233" stroke-width="4" stroke-linecap="round"/>
<path d="M69.0925 34.1159C74.6142 27.1473 78.0332 26.7773 84.3559 28.5604" stroke="#222233" stroke-width="4" stroke-linecap="round"/>
</svg>
