<svg width="32" height="32" viewBox="0 0 32 32" fill="none" xmlns="http://www.w3.org/2000/svg">
<path d="M26 19V26C26 26.5523 25.5523 27 25 27H20.5C19.9477 27 19.5 26.5523 19.5 26V6C19.5 5.44772 19.9477 5 20.5 5H25C25.5523 5 26 5.44772 26 6V13" stroke="#EB5757" stroke-width="4" stroke-linecap="round" stroke-linejoin="round"/>
<path d="M6 13V6C6 5.44772 6.44772 5 7 5H11.5C12.0523 5 12.5 5.44772 12.5 6V26C12.5 26.5523 12.0523 27 11.5 27H7C6.44772 27 6 26.5523 6 26V19" stroke="#EB5757" stroke-width="4" stroke-linecap="round" stroke-linejoin="round"/>
</svg>
